<svg xmlns="http://www.w3.org/2000/svg" viewBox="0 0 400.0 400.0" width="400" height="400">
<g fill="#000">
<polygon points="2.50,397.50 47.50,397.50 47.50,352.50 2.50,352.50"/>
<polygon points="52.50,397.50 97.50,397.50 97.50,352.50 52.50,352.50"/>
<polygon points="102.50,397.50 147.50,397.50 147.50,352.50 102.50,352.50"/>
<polygon points="152.50,397.50 197.50,397.50 197.50,352.50 152.50,352.50"/>
<polygon points="302.50,397.50 347.50,397.50 347.50,352.50 302.50,352.50"/>
<polygon points="2.50,347.50 47.50,347.50 47.50,302.50 2.50,302.50"/>
<polygon points="302.50,347.50 347.50,347.50 347.50,302.50 302.50,302.50"/>
<polygon points="2.50,297.50 47.50,297.50 47.50,252.50 2.50,252.50"/>
<polygon points="302.50,297.50 347.50,297.50 347.50,252.50 302.50,252.50"/>
<polygon points="2.50,247.50 47.50,247.50 47.50,202.50 2.50,202.50"/>
<polygon points="152.50,247.50 197.50,247.50 197.50,202.50 152.50,202.50"/>
<polygon points="202.50,247.50 247.50,247.50 247.50,202.50 202.50,202.50"/>
<polygon points="252.50,247.50 297.50,247.50 297.50,202.50 252.50,202.50"/>
<polygon points="302.50,247.50 347.50,247.50 347.50,202.50 302.50,202.50"/>
<polygon points="152.50,197.50 197.50,197.50 197.50,152.50 152.50,152.50"/>
<polygon points="152.50,147.50 197.50,147.50 197.50,102.50 152.50,102.50"/>
<polygon points="2.50,97.50 47.50,97.50 47.50,52.50 2.50,52.50"/>
<polygon points="52.50,97.50 97.50,97.50 97.50,52.50 52.50,52.50"/>
<polygon points="102.50,97.50 147.50,97.50 147.50,52.50 102.50,52.50"/>
<polygon points="152.50,97.50 197.50,97.50 197.50,52.50 152.50,52.50"/>
</g></svg>