<svg xmlns="http://www.w3.org/2000/svg" viewBox="0 0 400.0 400.0" width="400" height="400">
<g fill="#000">
<polygon points="102.50,197.50 147.50,197.50 147.50,2.50 102.50,2.50"/>
<polygon points="252.50,197.50 297.50,197.50 297.50,2.50 252.50,2.50"/>
<polygon points="102.50,47.50 297.50,47.50 297.50,2.50 102.50,2.50"/>
<polygon points="2.50,397.50 47.50,397.50 47.50,202.50 2.50,202.50"/>
<polygon points="152.50,397.50 197.50,397.50 197.50,252.50 152.50,252.50"/>
<polygon points="2.50,247.50 197.50,247.50 197.50,202.50 2.50,202.50"/>
<polygon points="2.50,397.50 197.50,397.50 197.50,352.50 2.50,352.50"/>
<polygon points="2.50,347.50 197.50,347.50 197.50,302.50 2.50,302.50"/>
<polygon points="202.50,397.50 247.50,397.50 247.50,202.50 202.50,202.50"/>
<polygon points="352.50,397.50 397.50,397.50 397.50,202.50 352.50,202.50"/>
<polygon points="202.50,247.50 397.50,247.50 397.50,202.50 202.50,202.50"/>
<polygon points="202.50,397.50 397.50,397.50 397.50,352.50 202.50,352.50"/>
</g></svg>