<svg xmlns="http://www.w3.org/2000/svg" viewBox="0 0 1250.0 400.0" width="1250" height="400">
<g fill="#000">
<polygon points="2.50,397.50 47.50,397.50 47.50,352.50 2.50,352.50"/>
<polygon points="52.50,397.50 97.50,397.50 97.50,352.50 52.50,352.50"/>
<polygon points="102.50,397.50 147.50,397.50 147.50,352.50 102.50,352.50"/>
<polygon points="152.50,397.50 197.50,397.50 197.50,352.50 152.50,352.50"/>
<polygon points="252.50,397.50 297.50,397.50 297.50,352.50 252.50,352.50"/>
<polygon points="952.50,397.50 997.50,397.50 997.50,352.50 952.50,352.50"/>
<polygon points="1052.50,397.50 1097.50,397.50 1097.50,352.50 1052.50,352.50"/>
<polygon points="1102.50,397.50 1147.50,397.50 1147.50,352.50 1102.50,352.50"/>
<polygon points="2.50,347.50 47.50,347.50 47.50,302.50 2.50,302.50"/>
<polygon points="252.50,347.50 297.50,347.50 297.50,302.50 252.50,302.50"/>
<polygon points="352.50,347.50 397.50,347.50 397.50,302.50 352.50,302.50"/>
<polygon points="402.50,347.50 447.50,347.50 447.50,302.50 402.50,302.50"/>
<polygon points="452.50,347.50 497.50,347.50 497.50,302.50 452.50,302.50"/>
<polygon points="652.50,347.50 697.50,347.50 697.50,302.50 652.50,302.50"/>
<polygon points="952.50,347.50 997.50,347.50 997.50,302.50 952.50,302.50"/>
<polygon points="1002.50,347.50 1047.50,347.50 1047.50,302.50 1002.50,302.50"/>
<polygon points="1152.50,347.50 1197.50,347.50 1197.50,302.50 1152.50,302.50"/>
<polygon points="2.50,297.50 47.50,297.50 47.50,252.50 2.50,252.50"/>
<polygon points="252.50,297.50 297.50,297.50 297.50,252.50 252.50,252.50"/>
<polygon points="702.50,297.50 747.50,297.50 747.50,252.50 702.50,252.50"/>
<polygon points="852.50,297.50 897.50,297.50 897.50,252.50 852.50,252.50"/>
<polygon points="902.50,297.50 947.50,297.50 947.50,252.50 902.50,252.50"/>
<polygon points="952.50,297.50 997.50,297.50 997.50,252.50 952.50,252.50"/>
<polygon points="1002.50,297.50 1047.50,297.50 1047.50,252.50 1002.50,252.50"/>
<polygon points="1152.50,297.50 1197.50,297.50 1197.50,252.50 1152.50,252.50"/>
<polygon points="152.50,247.50 197.50,247.50 197.50,202.50 152.50,202.50"/>
<polygon points="852.50,247.50 897.50,247.50 897.50,202.50 852.50,202.50"/>
<polygon points="952.50,247.50 997.50,247.50 997.50,202.50 952.50,202.50"/>
<polygon points="1002.50,247.50 1047.50,247.50 1047.50,202.50 1002.50,202.50"/>
<polygon points="1152.50,247.50 1197.50,247.50 1197.50,202.50 1152.50,202.50"/>
<polygon points="152.50,197.50 197.50,197.50 197.50,152.50 152.50,152.50"/>
<polygon points="852.50,197.50 897.50,197.50 897.50,152.50 852.50,152.50"/>
<polygon points="952.50,197.50 997.50,197.50 997.50,152.50 952.50,152.50"/>
<polygon points="1002.50,197.50 1047.50,197.50 1047.50,152.50 1002.50,152.50"/>
<polygon points="1152.50,197.50 1197.50,197.50 1197.50,152.50 1152.50,152.50"/>
<polygon points="2.50,147.50 47.50,147.50 47.50,102.50 2.50,102.50"/>
<polygon points="52.50,147.50 97.50,147.50 97.50,102.50 52.50,102.50"/>
<polygon points="102.50,147.50 147.50,147.50 147.50,102.50 102.50,102.50"/>
<polygon points="152.50,147.50 197.50,147.50 197.50,102.50 152.50,102.50"/>
<polygon points="852.50,147.50 897.50,147.50 897.50,102.50 852.50,102.50"/>
<polygon points="1052.50,147.50 1097.50,147.50 1097.50,102.50 1052.50,102.50"/>
<polygon points="1102.50,147.50 1147.50,147.50 1147.50,102.50 1102.50,102.50"/>
</g></svg>